# xmcd
#
# Track frame offsets:
#	183
#	16510
#	34258
#	53283
#	89650
#	107823
#	130303
#	160998
#	178465
#	210258
#	223483
#	243023
#	266210
#	288203
#	313880
#
# Disc length: 4420 seconds
#
# Revision: 1
# Processed by: cddbd v1.5.2PL0 Copyright (c) Steve Scherf et al.
# Submitted via: audiograbber 1.83.01
#
DISCID=d911420f
DTITLE=Joe Cocker - The Legendary Concerts
DYEAR=1900
DGENRE=Blues
TTITLE0=Dear Landlord
TTITLE1=Early in the Mornin´
TTITLE2=Didn´t you know you´ve got to cry sometime
TTITLE3=St. James Infirmary
TTITLE4=Hitchcock Railway
TTITLE5=Midnight Rider
TTITLE6=What kind of Man are you ?
TTITLE7=High time we went
TTITLE8=Love the one you´re with
TTITLE9=She came in through the Bathroom Window
TTITLE10=Hanky Tonk Woman
TTITLE11=Space Captain
TTITLE12=The Letter
TTITLE13=Delta Lady
TTITLE14=Cry me a River
EXTD=
EXTT0=
EXTT1=
EXTT2=
EXTT3=
EXTT4=
EXTT5=
EXTT6=
EXTT7=
EXTT8=
EXTT9=
EXTT10=
EXTT11=
EXTT12=
EXTT13=
EXTT14=
PLAYORDER=
